<svg width="34" height="34" viewBox="-2 0 34 34" fill="none" xmlns="http://www.w3.org/2000/svg">
<rect width="30" height="34" rx="7" fill="#612BD3"/>
<path d="M7.39 26.85L7.39 7.46L11.04 7.46L11.04 10.16L10.7 9.38Q11.4 8.32 12.61 7.73Q13.82 7.15 15.38 7.15Q17.41 7.15 19.04 8.13Q20.68 9.12 21.64 10.8Q22.61 12.48 22.61 14.56Q22.61 16.61 21.66 18.3Q20.71 19.99 19.07 20.98Q17.43 21.97 15.35 21.97Q13.89 21.97 12.66 21.43Q11.43 20.9 10.67 19.86L11.29 19.05L11.29 26.85ZM14.88 18.46Q15.97 18.46 16.81 17.96Q17.64 17.47 18.11 16.58Q18.57 15.7 18.57 14.56Q18.57 13.41 18.11 12.54Q17.64 11.67 16.81 11.16Q15.97 10.66 14.88 10.66Q13.84 10.66 13.02 11.15Q12.2 11.64 11.75 12.53Q11.29 13.41 11.29 14.56Q11.29 15.7 11.75 16.58Q12.2 17.47 13.02 17.96Q13.84 18.46 14.88 18.46Z" fill="white"/>
</svg>
